<svg width="60" height="56" viewBox="0 0 60 56" fill="none" xmlns="http://www.w3.org/2000/svg">
<path d="M21.4749 48.3906C21.9156 48.3906 22.2735 48.7513 22.2735 49.1953C22.2735 49.6394 21.9156 50 21.4749 50H4.7642C3.45358 50 2.26253 49.4602 1.39952 48.5906C0.536508 47.7211 0 46.5202 0 45.1996V4.80036C0 3.4798 0.536508 2.27894 1.39952 1.40938C2.26253 0.53981 3.45358 0 4.7642 0H22.4031C24.2617 0 25.859 0.514328 27.2669 1.29663C28.6396 2.05885 29.8176 3.0705 30.8784 4.09992C32.691 5.94485 34.568 7.81296 36.3347 9.69573C38.5267 12.1245 40.9877 14.8513 41 17.7218V17.7427V26.6453C41 27.0894 40.6428 27.4492 40.2021 27.4492C39.7607 27.4492 39.4035 27.0894 39.4035 26.6453V18.5474H27.25C25.6972 18.5474 24.2855 17.9072 23.2623 16.877C22.2398 15.846 21.6044 14.4243 21.6044 12.8589V3.67056C21.6044 3.22651 21.9624 2.86585 22.4031 2.86585C22.8438 2.86585 23.2017 3.22651 23.2017 3.67056V12.8589C23.2017 13.9795 23.657 14.9996 24.3912 15.7394C25.1255 16.4793 26.1379 16.9387 27.25 16.9387H39.3146C38.8793 14.9023 36.921 12.733 35.1559 10.7761L35.1245 10.7421L29.7709 5.25369C28.7967 4.30767 27.7229 3.38405 26.4997 2.70446C25.3102 2.0434 23.9635 1.60862 22.4031 1.60862H4.7642C3.89429 1.60862 3.10255 1.96849 2.52849 2.54691C1.95366 3.12534 1.59726 3.92385 1.59726 4.80036V45.1996C1.59726 46.0761 1.95366 46.8739 2.52849 47.4531C3.10255 48.0315 3.89429 48.3906 4.7642 48.3906H21.4749ZM9.01871 39.7575C8.57801 39.7575 8.22008 39.3976 8.22008 38.9536C8.22008 38.5088 8.57801 38.1489 9.01871 38.1489H18.6C19.0415 38.1489 19.3986 38.5088 19.3986 38.9536C19.3986 39.3976 19.0415 39.7575 18.6 39.7575H9.01871ZM9.01871 31.658C8.57801 31.658 8.22008 31.2974 8.22008 30.8533C8.22008 30.4093 8.57801 30.0486 9.01871 30.0486H21.7738C22.2145 30.0486 22.5725 30.4093 22.5725 30.8533C22.5725 31.2974 22.2145 31.658 21.7738 31.658H9.01871ZM9.01871 23.5578C8.57801 23.5578 8.22008 23.1979 8.22008 22.7531C8.22008 22.309 8.57801 21.9492 9.01871 21.9492H21.7738C22.2145 21.9492 22.5725 22.309 22.5725 22.7531C22.5725 23.1979 22.2145 23.5578 21.7738 23.5578H9.01871Z" fill="currentColor"/>
<path fill-rule="evenodd" clip-rule="evenodd" d="M36.5 29C40.2278 29 43.6024 30.5111 46.0453 32.9541C48.4889 35.397 50 38.7725 50 42.5004C50 46.2275 48.4889 49.603 46.0453 52.0459C43.6024 54.4889 40.2278 56 36.5 56C32.7722 56 29.3968 54.4889 26.9539 52.0459C24.5111 49.603 23 46.2275 23 42.5004C23 38.7725 24.5111 35.397 26.9539 32.9541C29.3968 30.5111 32.7722 29 36.5 29ZM43.7974 41.2006C44.5147 41.2006 45.0971 41.7823 45.0971 42.5004C45.0971 43.2178 44.5147 43.7994 43.7974 43.7994H37.7998V49.7972C37.7998 50.5153 37.2173 51.097 36.5 51.097C35.7819 51.097 35.2002 50.5153 35.2002 49.7972V43.7994H29.2026C28.4845 43.7994 27.9029 43.2178 27.9029 42.5004C27.9029 41.7823 28.4845 41.2006 29.2026 41.2006H35.2002V35.2028C35.2002 34.4847 35.7819 33.903 36.5 33.903C37.2173 33.903 37.7998 34.4847 37.7998 35.2028V41.2006H43.7974Z" fill="currentColor"/>
</svg>
